G04*
G04 #@! TF.GenerationSoftware,Altium Limited,CircuitStudio,1.5.1 (1.5.1.13)*
G04*
G04 Layer_Color=8150272*
%FSLAX25Y25*%
%MOIN*%
G70*
G01*
G75*
%ADD24O,0.06000X0.08000*%
%ADD25R,0.06000X0.08000*%
%ADD28R,0.06000X0.12000*%
%ADD29R,0.08000X0.04000*%
G04:AMPARAMS|DCode=37|XSize=185.17mil|YSize=185.17mil|CornerRadius=48.29mil|HoleSize=0mil|Usage=FLASHONLY|Rotation=0.000|XOffset=0mil|YOffset=0mil|HoleType=Round|Shape=RoundedRectangle|*
%AMROUNDEDRECTD37*
21,1,0.18517,0.08858,0,0,0.0*
21,1,0.08858,0.18517,0,0,0.0*
1,1,0.09658,0.04429,-0.04429*
1,1,0.09658,-0.04429,-0.04429*
1,1,0.09658,-0.04429,0.04429*
1,1,0.09658,0.04429,0.04429*
%
%ADD37ROUNDEDRECTD37*%
%ADD38R,0.04737X0.05131*%
%ADD43R,0.06706X0.05918*%
%ADD48R,0.04737X0.08674*%
%ADD49R,0.03969X0.01781*%
%ADD50R,0.07099X0.10406*%
D24*
X235000Y252972D02*
D03*
Y262972D02*
D03*
X245000Y252972D02*
D03*
Y262972D02*
D03*
X255000Y252972D02*
D03*
Y262972D02*
D03*
X265000Y252972D02*
D03*
D25*
Y262972D02*
D03*
D28*
X306496Y314567D02*
D03*
D29*
X331299Y305512D02*
D03*
Y314567D02*
D03*
Y323622D02*
D03*
D37*
X230709Y285138D02*
D03*
Y310728D02*
D03*
X390158Y326476D02*
D03*
Y300886D02*
D03*
Y275295D02*
D03*
Y249705D02*
D03*
D38*
X366535Y308071D02*
D03*
Y301378D02*
D03*
D43*
X374016Y300984D02*
D03*
Y308465D02*
D03*
X359449Y300591D02*
D03*
Y308071D02*
D03*
D48*
X352362Y322835D02*
D03*
X342520D02*
D03*
X361417D02*
D03*
X351575Y301575D02*
D03*
D49*
X375193Y285528D02*
D03*
Y287496D02*
D03*
Y289465D02*
D03*
X364150Y285528D02*
D03*
Y287496D02*
D03*
Y289465D02*
D03*
Y291433D02*
D03*
X375193D02*
D03*
D50*
X369672Y288480D02*
D03*
M02*
