M48
;Layer_Color=6321
;FILE_FORMAT=2:5
INCH,LZ
;TYPE=PLATED
T1F00S00C0.01968
T2F00S00C0.04000
%
T01
X0323622Y0256693
X0325197Y0262598
X0333366Y026752
X0332677Y0272933
Y0283957
Y0291437
X0335433Y0300787
X034252Y0307874
X0351575Y0308661
X0360236Y0306299
X0359842Y0290945
X035433Y0290944
X0354724Y028622
X035748Y0281201
X0363779Y0275197
X0362106Y0262303
X0352559Y0270866
X0350787Y0252756
X0344783Y0252559
X0338583Y0252756
X0330315Y025
X0356398Y0248819
X0365748Y0247638
X0377165Y0245276
X0378346Y0259547
X0376378Y027874
X0379123Y0285816
X0381102Y0288583
X0378739Y0293306
X0379134Y0301575
X0381102Y0309842
X0387402Y0312205
X0399606Y0288583
X0398031Y0263386
X037126Y0288189
X0345669Y0293406
X0322441Y0307087
X0317717Y0304724
X0314173Y0301279
X0316929Y0276082
X0303543Y0275492
X029685Y0274902
X0293307Y0274803
Y0278445
Y0283465
X029685Y02812
X0296062Y0286712
X029252Y028937
X0285827Y0289862
X0287795Y0282677
X0287008Y0278445
X0287795Y0274803
X028189Y0266929
X0273622Y0268504
X027126Y0258268
X0272047Y0249606
X0298425Y0250394
X0295866Y0254823
X0304724Y0264272
X0306299Y0282381
X0304331Y0286122
X0305962Y0289236
X0306299Y0294192
X0298425Y029498
X0289764Y0295374
X0280709Y0299213
X0273425Y0301279
X0273819Y0289173
X025Y0290551
X0254724Y029685
X0251969Y0281201
X0248031Y0280807
X0258661Y0275984
X0239764Y0272441
X0226378Y0264567
X0221161Y0255906
X022126Y0245669
X022687Y0241437
X023809Y0243406
X0249606Y024252
X0233465Y0297638
X0220571Y0298524
X0243012Y0307874
X02937Y0307086
X0309842Y0303937
X0311319Y0323721
X0304921Y0323917
X0305583Y0329587
X0302953Y0332087
X0309055Y0335039
X0295669Y0324114
X0284646
X0283957Y0328937
X0279921Y0331594
X0279035Y0337598
X0266535Y0330807
X0259842Y0335433
X0261024Y032441
X0253543Y0325984
X025Y0318504
X0242126Y0322047
X0241142Y0327756
X025Y0341732
X022441Y0339567
X0219882Y032441
X0277953Y0314173
X0320374Y0322047
X0318504Y0326378
X0324016Y0334646
X0338583Y0335039
X0343307Y0342913
X0347638Y0320472
X0348425Y0314961
X035315Y0316929
X0358268Y0318504
X0377953
X037559Y0316142
X0382283Y0314961
X0393701Y0314173
X0399606Y0313779
Y0338583
X0373622Y0336614
X0372441Y0342913
X0377756Y0330217
X037441Y0322835
X0337795Y0319291
X0337007Y031496
X034252Y0313386
X0315354Y0342913
T02
X0235Y0252972
Y0262972
X0245
Y0252972
X0255
Y0262972
X0265
Y0252972
M30
